<svg width="125" height="100" viewBox="0 0 125 100" fill="none" xmlns="http://www.w3.org/2000/svg">
<rect x="0.5" width="100" height="100" rx="50" fill="#F5FBDF"/>
<rect x="24.5" width="100" height="100" rx="50" fill="#8E9D74"/>
<path d="M67.2344 53.75L69.9688 44.8438L62.7812 39.0625H71.6875L74.5 30.3125L77.3125 39.0625H86.2188L78.9531 44.8438L81.6875 53.75L74.5 48.2031L67.2344 53.75ZM55.75 82.8125V58.6719C53.7708 56.4844 52.2344 53.9844 51.1406 51.1719C50.0469 48.3594 49.5 45.3646 49.5 42.1875C49.5 35.2083 51.9219 29.2969 56.7656 24.4531C61.6094 19.6094 67.5208 17.1875 74.5 17.1875C81.4792 17.1875 87.3906 19.6094 92.2344 24.4531C97.0781 29.2969 99.5 35.2083 99.5 42.1875C99.5 45.3646 98.9531 48.3594 97.8594 51.1719C96.7656 53.9844 95.2292 56.4844 93.25 58.6719V82.8125L74.5 76.5625L55.75 82.8125ZM74.5 60.9375C79.7083 60.9375 84.1354 59.1146 87.7812 55.4688C91.4271 51.8229 93.25 47.3958 93.25 42.1875C93.25 36.9792 91.4271 32.5521 87.7812 28.9062C84.1354 25.2604 79.7083 23.4375 74.5 23.4375C69.2917 23.4375 64.8646 25.2604 61.2188 28.9062C57.5729 32.5521 55.75 36.9792 55.75 42.1875C55.75 47.3958 57.5729 51.8229 61.2188 55.4688C64.8646 59.1146 69.2917 60.9375 74.5 60.9375Z" fill="#F5FBDF"/>
</svg>
