<svg width="121" height="100" viewBox="0 0 121 100" fill="none" xmlns="http://www.w3.org/2000/svg">
<rect x="0.5" width="100" height="100" rx="50" fill="#F5FBDF"/>
<rect x="20.5" width="100" height="100" rx="50" fill="#8E9D74"/>
<path d="M46.125 19.8171C43.0195 19.8171 40.5 22.352 40.5 25.4764V31.1357H34.875C33.8438 31.1357 33 31.9846 33 33.0221C33 34.0596 33.8438 34.9085 34.875 34.9085H64.875C65.9062 34.9085 66.75 35.7574 66.75 36.795C66.75 37.8325 65.9062 38.6814 64.875 38.6814H38.625C37.5938 38.6814 36.75 39.5303 36.75 40.5678C36.75 41.6054 37.5938 42.4543 38.625 42.4543H61.125C62.1562 42.4543 63 43.3032 63 44.3407C63 45.3782 62.1562 46.2271 61.125 46.2271H34.875C33.8438 46.2271 33 47.076 33 48.1136C33 49.1511 33.8438 50 34.875 50H57.375C58.4062 50 59.25 50.8489 59.25 51.8864C59.25 52.924 58.4062 53.7729 57.375 53.7729H40.5V68.8643C40.5 75.1131 45.5391 80.1829 51.75 80.1829C57.9609 80.1829 63 75.1131 63 68.8643H78C78 75.1131 83.0391 80.1829 89.25 80.1829C95.4609 80.1829 100.5 75.1131 100.5 68.8643H104.25C106.324 68.8643 108 67.1783 108 65.0915C108 63.0046 106.324 61.3186 104.25 61.3186V47.7952C104.25 45.7909 103.465 43.8691 102.059 42.4543L93 33.3404C91.5938 31.9256 89.6836 31.1357 87.6914 31.1357H81.75V25.4764C81.75 22.352 79.2305 19.8171 76.125 19.8171H46.125ZM96.75 47.7952V50H81.75V38.6814H87.6914L96.75 47.7952ZM51.75 63.205C53.2418 63.205 54.6726 63.8013 55.7275 64.8626C56.7824 65.9239 57.375 67.3634 57.375 68.8643C57.375 70.3653 56.7824 71.8047 55.7275 72.8661C54.6726 73.9274 53.2418 74.5236 51.75 74.5236C50.2582 74.5236 48.8274 73.9274 47.7725 72.8661C46.7176 71.8047 46.125 70.3653 46.125 68.8643C46.125 67.3634 46.7176 65.9239 47.7725 64.8626C48.8274 63.8013 50.2582 63.205 51.75 63.205ZM83.625 68.8643C83.625 67.3634 84.2176 65.9239 85.2725 64.8626C86.3274 63.8013 87.7582 63.205 89.25 63.205C90.7418 63.205 92.1726 63.8013 93.2275 64.8626C94.2824 65.9239 94.875 67.3634 94.875 68.8643C94.875 70.3653 94.2824 71.8047 93.2275 72.8661C92.1726 73.9274 90.7418 74.5236 89.25 74.5236C87.7582 74.5236 86.3274 73.9274 85.2725 72.8661C84.2176 71.8047 83.625 70.3653 83.625 68.8643Z" fill="#F5FBDF"/>
</svg>
