<svg width="121" height="100" viewBox="0 0 121 100" fill="none" xmlns="http://www.w3.org/2000/svg">
<rect x="0.5" width="100" height="100" rx="50" fill="#F5FBDF"/>
<rect x="20.5" width="100" height="100" rx="50" fill="#8E9D74"/>
<path d="M47.5832 62.3958V58.2291H37.1665V49.8958H57.9998V41.5625H41.3332C40.1526 41.5625 39.1637 41.1639 38.3665 40.3666C37.5693 39.5694 37.1693 38.5791 37.1665 37.3958V20.7291C37.1665 19.5486 37.5665 18.5597 38.3665 17.7625C39.1665 16.9653 40.1554 16.5653 41.3332 16.5625H47.5832V12.3958H55.9165V16.5625H66.3332V24.8958H45.4998V33.2291H62.1665C63.3471 33.2291 64.3373 33.6291 65.1373 34.4291C65.9373 35.2291 66.336 36.218 66.3332 37.3958V54.0625C66.3332 55.243 65.9332 56.2333 65.1332 57.0333C64.3332 57.8333 63.3443 58.2319 62.1665 58.2291H55.9165V62.3958H47.5832ZM78.6248 87.3958L60.9165 69.6875L66.7498 63.8541L78.6248 75.7291L102.167 52.1875L108 58.0208L78.6248 87.3958Z" fill="#F5FBDF"/>
</svg>
