<svg width="125" height="100" viewBox="0 0 125 100" fill="none" xmlns="http://www.w3.org/2000/svg">
<rect x="0.5" width="100" height="100" rx="50" fill="#F5FBDF"/>
<rect x="24.5" width="100" height="100" rx="50" fill="#8E9D74"/>
<path fill-rule="evenodd" clip-rule="evenodd" d="M74.4304 20.5372C72.1909 20.4967 69.9654 20.8983 67.8813 21.7189C65.7972 22.5395 63.8954 23.7631 62.2847 25.3195C60.674 26.876 59.3861 28.7348 58.4946 30.7896C57.6031 32.8443 57.1255 35.0548 57.0893 37.2943V60.7157C57.0893 62.1365 56.5249 63.4991 55.5202 64.5038C54.5156 65.5085 53.1529 66.0729 51.7321 66.0729H45.0357C42.9045 66.0729 40.8606 65.2263 39.3536 63.7193C37.8466 62.2123 37 60.1684 37 58.0372V47.3229C37 45.1917 37.8466 43.1478 39.3536 41.6408C40.8606 40.1338 42.9045 39.2872 45.0357 39.2872H49.0536V37.1979C49.1025 33.9053 49.7995 30.6547 51.1048 27.6315C52.4101 24.6084 54.2982 21.872 56.6612 19.5787C59.0242 17.2853 61.8158 15.48 64.8766 14.2656C67.9374 13.0513 71.2075 12.4518 74.5 12.5014C77.7925 12.4518 81.0626 13.0513 84.1234 14.2656C87.1842 15.48 89.9758 17.2853 92.3388 19.5787C94.7018 21.872 96.5899 24.6084 97.8952 27.6315C99.2005 30.6547 99.8976 33.9053 99.9464 37.1979V39.2872H103.964C106.095 39.2872 108.139 40.1338 109.646 41.6408C111.153 43.1478 112 45.1917 112 47.3229V58.0372C112 60.1684 111.153 62.2123 109.646 63.7193C108.139 65.2263 106.095 66.0729 103.964 66.0729H99.9464V68.7514C99.9471 72.3716 98.6149 75.8652 96.2039 78.5657C93.7929 81.2662 90.4721 82.9844 86.875 83.3925C86.1765 84.6397 85.1578 85.678 83.9242 86.4003C82.6906 87.1226 81.2866 87.5027 79.8571 87.5014H71.8214C69.6902 87.5014 67.6463 86.6548 66.1393 85.1478C64.6323 83.6408 63.7857 81.5969 63.7857 79.4657C63.7857 77.3345 64.6323 75.2906 66.1393 73.7836C67.6463 72.2766 69.6902 71.43 71.8214 71.43H79.8571C82.7607 71.43 85.3054 72.9675 86.7143 75.2764C88.1909 74.9371 89.5087 74.107 90.4525 72.9219C91.3964 71.7367 91.9104 70.2665 91.9107 68.7514V37.2889C91.874 35.0379 91.3914 32.8164 90.4909 30.753C89.5904 28.6895 88.2898 26.8251 86.6643 25.2673C85.0388 23.7096 83.1207 22.4895 81.0208 21.6776C78.9209 20.8657 76.681 20.4781 74.4304 20.5372Z" fill="#F5FBDF"/>
</svg>
